<svg width="222" height="62" viewBox="0 0 222 62" xmlns="http://www.w3.org/2000/svg"><title>On White Background</title><g fill="none" fill-rule="evenodd"><path d="M7.266 48.362h-2.58a3.87 3.87 0 0 1-3.87-3.87V17.328a3.87 3.87 0 0 1 3.87-3.87h2.155a3.87 3.87 0 0 1 3.87 3.87v27.59a3.446 3.446 0 0 1-3.446 3.445M61.62 61.819h-2.578a3.87 3.87 0 0 1-3.87-3.87V3.87A3.87 3.87 0 0 1 59.041 0h2.154a3.87 3.87 0 0 1 3.87 3.87v54.502a3.446 3.446 0 0 1-3.446 3.446m-36.235.001h-2.58a3.87 3.87 0 0 1-3.87-3.87V3.87A3.87 3.87 0 0 1 22.805 0h2.156a3.87 3.87 0 0 1 3.87 3.87v54.502a3.446 3.446 0 0 1-3.446 3.446m54.354-13.456h-2.58a3.87 3.87 0 0 1-3.87-3.87V17.328a3.87 3.87 0 0 1 3.87-3.87h2.156a3.87 3.87 0 0 1 3.87 3.87v27.59a3.446 3.446 0 0 1-3.446 3.445m-36.237 1.094h-2.579a3.87 3.87 0 0 1-3.87-3.87V19.192a3.87 3.87 0 0 1 3.87-3.87h2.155a3.87 3.87 0 0 1 3.87 3.87v26.82a3.446 3.446 0 0 1-3.446 3.445" fill="#231F20"/><path d="M126.797 33.861l-2.039-4.428h-.027l-2.013 4.428h4.08zm-11.03 5.743l8.4-18.06a.546.546 0 0 1 .456-.296h.27c.186 0 .374.134.455.295l8.4 18.061c.161.35-.054.698-.456.698h-2.979c-.483 0-.698-.16-.94-.67l-.966-2.12h-7.299l-.966 2.146c-.134.322-.43.644-.966.644h-2.953c-.402 0-.617-.349-.456-.698zm39.073-18.356c2.685 0 4.67.832 6.496 2.496a.498.498 0 0 1 .026.751l-2.093 2.174a.47.47 0 0 1-.671 0 5.481 5.481 0 0 0-3.623-1.369c-3.032 0-5.26 2.523-5.26 5.53 0 2.977 2.255 5.446 5.287 5.446 1.26 0 2.63-.456 3.596-1.288.188-.16.537-.16.698.027l2.093 2.227c.188.188.16.537-.027.725-1.825 1.771-4.132 2.603-6.521 2.603-5.367 0-9.688-4.267-9.688-9.634a9.667 9.667 0 0 1 9.688-9.688m22.327.43a.512.512 0 0 1 .483-.43h.43c.135 0 .376.108.457.269l6.225 11.593h.053l6.227-11.593c.08-.161.322-.268.457-.268h.429c.215 0 .456.187.483.429l3.033 18.034c.053.349-.188.59-.51.59h-3.167c-.242 0-.483-.214-.51-.43l-1.209-8.291h-.053l-4.509 8.695c-.08.16-.321.295-.455.295h-.484c-.16 0-.376-.134-.456-.295l-4.535-8.695h-.054l-1.18 8.292a.522.522 0 0 1-.51.429h-3.168c-.322 0-.563-.241-.509-.59l3.032-18.034zm32.445.349a.51.51 0 0 1 .51-.51h11.11a.51.51 0 0 1 .51.51v2.925a.51.51 0 0 1-.51.51H213.8v3.328h6.12c.268 0 .51.24.51.51v2.925a.51.51 0 0 1-.51.51h-6.12v3.623h7.434a.51.51 0 0 1 .51.509v2.926a.51.51 0 0 1-.51.51h-11.11a.51.51 0 0 1-.51-.51V22.027z" fill="#000"/></g></svg>