<?xml version="1.0" encoding="UTF-8"?>
<svg width="222px" height="62px" viewBox="0 0 222 62" version="1.1" xmlns="http://www.w3.org/2000/svg" xmlns:xlink="http://www.w3.org/1999/xlink">
    <!-- Generator: Sketch 49 (51002) - http://www.bohemiancoding.com/sketch -->
    <title>On White Background</title>
    <desc>Created with Sketch.</desc>
    <defs></defs>
    <g id="Page-1" stroke="none" stroke-width="1" fill="none" fill-rule="evenodd">
        <g id="Acme-Logo-#8" transform="translate(-138.000000, -87.000000)">
            <g id="On-White-Background" transform="translate(138.000000, 87.000000)">
                <g id="Symbol" fill="#231F20">
                    <path d="M7.2655,48.3625 L4.6865,48.3625 C2.5495,48.3625 0.8165,46.6295 0.8165,44.4925 L0.8165,17.3265 C0.8165,15.1895 2.5495,13.4565 4.6865,13.4565 L6.8415,13.4565 C8.9785,13.4565 10.7115,15.1895 10.7115,17.3265 L10.7115,44.9165 C10.7115,46.8195 9.1685,48.3625 7.2655,48.3625" id="Fill-2"></path>
                    <path d="M61.6205,61.8185 L59.0415,61.8185 C56.9045,61.8185 55.1715,60.0855 55.1715,57.9485 L55.1715,3.8705 C55.1715,1.7335 56.9045,0.0005 59.0415,0.0005 L61.1965,0.0005 C63.3335,0.0005 65.0665,1.7335 65.0665,3.8705 L65.0665,58.3725 C65.0665,60.2755 63.5235,61.8185 61.6205,61.8185" id="Fill-4"></path>
                    <path d="M25.3838,61.8185 L22.8048,61.8185 C20.6678,61.8185 18.9348,60.0855 18.9348,57.9485 L18.9348,3.8705 C18.9348,1.7335 20.6678,0.0005 22.8048,0.0005 L24.9598,0.0005 C27.0968,0.0005 28.8298,1.7335 28.8298,3.8705 L28.8298,58.3725 C28.8298,60.2755 27.2868,61.8185 25.3838,61.8185" id="Fill-6"></path>
                    <path d="M79.7388,48.3625 L77.1598,48.3625 C75.0228,48.3625 73.2898,46.6295 73.2898,44.4925 L73.2898,17.3265 C73.2898,15.1895 75.0228,13.4565 77.1598,13.4565 L79.3148,13.4565 C81.4518,13.4565 83.1848,15.1895 83.1848,17.3265 L83.1848,44.9165 C83.1848,46.8195 81.6418,48.3625 79.7388,48.3625" id="Fill-8"></path>
                    <path d="M43.5021,49.4572 L40.9231,49.4572 C38.7861,49.4572 37.0531,47.7242 37.0531,45.5872 L37.0531,19.1922 C37.0531,17.0542 38.7861,15.3222 40.9231,15.3222 L43.0781,15.3222 C45.2151,15.3222 46.9481,17.0542 46.9481,19.1922 L46.9481,46.0112 C46.9481,47.9142 45.4051,49.4572 43.5021,49.4572" id="Fill-10"></path>
                </g>
                <g id="Acme" transform="translate(115.000000, 21.000000)" fill="#000000">
                    <path d="M11.7972,12.8614 L9.7582,8.4334 L9.7312,8.4334 L7.7182,12.8614 L11.7972,12.8614 Z M0.7672,18.6044 L9.1672,0.5434 C9.2482,0.3824 9.4362,0.2484 9.6232,0.2484 L9.8922,0.2484 C10.0792,0.2484 10.2672,0.3824 10.3482,0.5434 L18.7482,18.6044 C18.9092,18.9534 18.6942,19.3024 18.2922,19.3024 L15.3132,19.3024 C14.8302,19.3024 14.6152,19.1414 14.3732,18.6314 L13.4072,16.5114 L6.1082,16.5114 L5.1422,18.6584 C5.0082,18.9804 4.7122,19.3024 4.1762,19.3024 L1.2232,19.3024 C0.8212,19.3024 0.6062,18.9534 0.7672,18.6044 L0.7672,18.6044 Z" id="Fill-12"></path>
                    <path d="M39.8409,0.2483 C42.5249,0.2483 44.5109,1.0803 46.3359,2.7443 C46.5769,2.9593 46.5769,3.2803 46.3619,3.4953 L44.2689,5.6693 C44.0809,5.8573 43.7859,5.8573 43.5979,5.6693 C42.6049,4.7833 41.2899,4.3003 39.9749,4.3003 C36.9429,4.3003 34.7149,6.8233 34.7149,9.8293 C34.7149,12.8073 36.9699,15.2763 40.0019,15.2763 C41.2629,15.2763 42.6319,14.8203 43.5979,13.9883 C43.7859,13.8273 44.1349,13.8273 44.2959,14.0153 L46.3889,16.2423 C46.5769,16.4303 46.5499,16.7793 46.3619,16.9673 C44.5369,18.7383 42.2299,19.5703 39.8409,19.5703 C34.4739,19.5703 30.1529,15.3033 30.1529,9.9363 C30.1529,4.5693 34.4739,0.2483 39.8409,0.2483" id="Fill-14"></path>
                    <path d="M62.1685,0.6777 C62.1955,0.4357 62.4365,0.2487 62.6515,0.2487 L63.0805,0.2487 C63.2155,0.2487 63.4565,0.3557 63.5375,0.5167 L69.7635,12.1097 L69.8165,12.1097 L76.0425,0.5167 C76.1235,0.3557 76.3645,0.2487 76.4995,0.2487 L76.9285,0.2487 C77.1435,0.2487 77.3845,0.4357 77.4115,0.6777 L80.4445,18.7117 C80.4975,19.0607 80.2565,19.3017 79.9345,19.3017 L76.7675,19.3017 C76.5255,19.3017 76.2845,19.0877 76.2575,18.8727 L75.0495,10.5807 L74.9965,10.5807 L70.4875,19.2757 C70.4075,19.4367 70.1655,19.5707 70.0315,19.5707 L69.5485,19.5707 C69.3875,19.5707 69.1725,19.4367 69.0925,19.2757 L64.5575,10.5807 L64.5035,10.5807 L63.3225,18.8727 C63.2955,19.0877 63.0805,19.3017 62.8125,19.3017 L59.6455,19.3017 C59.3235,19.3017 59.0825,19.0607 59.1365,18.7117 L62.1685,0.6777 Z" id="Fill-16"></path>
                    <path d="M94.6133,1.0266 C94.6133,0.7586 94.8283,0.5166 95.1233,0.5166 L106.2333,0.5166 C106.5283,0.5166 106.7433,0.7586 106.7433,1.0266 L106.7433,3.9516 C106.7433,4.2196 106.5283,4.4616 106.2333,4.4616 L98.7993,4.4616 L98.7993,7.7896 L104.9183,7.7896 C105.1873,7.7896 105.4283,8.0306 105.4283,8.2996 L105.4283,11.2246 C105.4283,11.5196 105.1873,11.7346 104.9183,11.7346 L98.7993,11.7346 L98.7993,15.3576 L106.2333,15.3576 C106.5283,15.3576 106.7433,15.5986 106.7433,15.8666 L106.7433,18.7926 C106.7433,19.0606 106.5283,19.3026 106.2333,19.3026 L95.1233,19.3026 C94.8283,19.3026 94.6133,19.0606 94.6133,18.7926 L94.6133,1.0266 Z" id="Fill-18"></path>
                </g>
            </g>
        </g>
    </g>
</svg>