<svg xmlns="http://www.w3.org/2000/svg" width="32" height="32" viewBox="0 0 32 32"><title>tumblr</title><path fill="#fff" d="M18.001 14v7.318c0 1.857-.024 2.927.173 3.453.195.524.685 1.067 1.218 1.381.709.425 1.517.637 2.428.637 1.62 0 2.577-.214 4.179-1.267v4.811a18.187 18.187 0 0 1-3.666 1.279 15.852 15.852 0 0 1-3.596.388c-1.463 0-2.327-.184-3.45-.552-1.124-.371-2.083-.9-2.876-1.579-.795-.685-1.344-1.413-1.652-2.182s-.46-1.888-.46-3.351V13.114H6.004V8.583C7.26 8.175 8.665 7.59 9.56 6.828a8.757 8.757 0 0 0 2.16-2.748c.543-1.067.917-2.429 1.121-4.079H18v8h7.999v6H18z"/></svg>